<svg xmlns="http://www.w3.org/2000/svg" viewBox="0 0 1200 630">
  <defs>
    <linearGradient id="bg" x1="0" y1="0" x2="1" y2="1"><stop stop-color="#f7f1e6"/><stop offset="1" stop-color="#e8e0d0"/></linearGradient>
    <radialGradient id="light" cx="84%" cy="15%" r="65%"><stop stop-color="#d7aa50" stop-opacity=".55"/><stop offset="1" stop-color="#d7aa50" stop-opacity="0"/></radialGradient>
    <filter id="shadow" x="-20%" y="-20%" width="140%" height="150%"><feDropShadow dx="0" dy="18" stdDeviation="20" flood-color="#172019" flood-opacity=".18"/></filter>
  </defs>
  <rect width="1200" height="630" rx="40" fill="url(#bg)"/><rect width="1200" height="630" rx="40" fill="url(#light)"/>
  <g transform="translate(65 58)">
    <rect width="74" height="74" rx="22" fill="#172019"/><text x="37" y="50" text-anchor="middle" font-family="Georgia,serif" font-size="42" font-weight="700" fill="#f7f1e6">A</text>
    <text x="94" y="30" font-family="Georgia,serif" font-size="30" font-weight="700" fill="#172019">Atlas</text><text x="95" y="55" font-family="Arial,sans-serif" font-size="12" font-weight="700" letter-spacing="3" fill="#5c665f">MERCABÁ</text>
  </g>
  <text x="65" y="230" font-family="Georgia,serif" font-size="82" font-weight="700" fill="#172019">Todo reunido.</text>
  <text x="65" y="310" font-family="Georgia,serif" font-size="82" font-style="italic" font-weight="700" fill="#275a48">Todo aquí.</text>
  <text x="67" y="365" font-family="Arial,sans-serif" font-size="24" fill="#566058">Una biblioteca católica viva para leer,</text>
  <text x="67" y="398" font-family="Arial,sans-serif" font-size="24" fill="#566058">comprender, rezar y descubrir.</text>
  <g transform="translate(65 464)" font-family="Arial,sans-serif" font-size="17" font-weight="700">
    <g><rect width="120" height="48" rx="24" fill="#dbe8e1"/><text x="60" y="30" text-anchor="middle" fill="#275a48">Biblia</text></g>
    <g transform="translate(132)"><rect width="120" height="48" rx="24" fill="#f1e5cf"/><text x="60" y="30" text-anchor="middle" fill="#8a5c14">Libros</text></g>
    <g transform="translate(264)"><rect width="120" height="48" rx="24" fill="#eeddda"/><text x="60" y="30" text-anchor="middle" fill="#87463e">Santos</text></g>
    <g transform="translate(396)"><rect width="120" height="48" rx="24" fill="#e7deec"/><text x="60" y="30" text-anchor="middle" fill="#63477b">Oración</text></g>
  </g>
  <g transform="translate(720 62)" filter="url(#shadow)">
    <rect width="400" height="506" rx="34" fill="#fffdf8" stroke="#d7d3c8"/>
    <rect x="24" y="25" width="352" height="156" rx="22" fill="#172019"/>
    <path d="M48 146c53-44 96-50 152-18 56-32 99-26 152 18V69c-53-38-96-43-152-15-56-28-99-23-152 15z" fill="none" stroke="#e6c77b" stroke-opacity=".72" stroke-width="3"/>
    <text x="48" y="212" font-family="Arial,sans-serif" font-size="12" font-weight="700" letter-spacing="2" fill="#275a48">HOY EN ATLAS</text>
    <g transform="translate(24 230)"><rect width="110" height="118" rx="18" fill="#f1e5cf"/><text x="18" y="38" font-family="Georgia,serif" font-size="31" fill="#8a5c14">☼</text><text x="18" y="88" font-family="Arial,sans-serif" font-size="14" font-weight="700" fill="#172019">Evangelio</text></g>
    <g transform="translate(145 230)"><rect width="110" height="118" rx="18" fill="#eeddda"/><text x="18" y="38" font-family="Georgia,serif" font-size="31" fill="#87463e">✦</text><text x="18" y="88" font-family="Arial,sans-serif" font-size="14" font-weight="700" fill="#172019">Santo</text></g>
    <g transform="translate(266 230)"><rect width="110" height="118" rx="18" fill="#e7deec"/><text x="18" y="38" font-family="Georgia,serif" font-size="25" font-weight="700" fill="#63477b">10′</text><text x="18" y="88" font-family="Arial,sans-serif" font-size="14" font-weight="700" fill="#172019">Meditación</text></g>
    <rect x="24" y="369" width="352" height="62" rx="19" fill="#dbe8e1"/><circle cx="59" cy="400" r="17" fill="#275a48"/><path d="m54 400 4 4 8-10" fill="none" stroke="#fff" stroke-width="3"/><text x="89" y="407" font-family="Arial,sans-serif" font-size="17" font-weight="700" fill="#172019">Pregunta al especialista</text>
    <g transform="translate(24 455)"><circle cx="18" cy="18" r="18" fill="#172019"/><text x="18" y="24" text-anchor="middle" font-family="Georgia,serif" font-size="18" fill="#fff">A</text><text x="52" y="23" font-family="Arial,sans-serif" font-size="13" font-weight="700" fill="#566058">spotigetta.github.io/atlastesting</text></g>
  </g>
</svg>
